<svg id="visual" viewBox="0 0 450 900" width="450" height="900" xmlns="http://www.w3.org/2000/svg" xmlns:xlink="http://www.w3.org/1999/xlink" version="1.1"><rect x="0" y="0" width="450" height="900" fill="#0000"></rect><path d="M137 900L135.5 885C134 870 131 840 135.3 810C139.7 780 151.3 750 154.5 720C157.7 690 152.3 660 138.2 630C124 600 101 570 90.3 540C79.7 510 81.3 480 87.8 450C94.3 420 105.7 390 118.8 360C132 330 147 300 143.3 270C139.7 240 117.3 210 103.7 180C90 150 85 120 87.8 90C90.7 60 101.3 30 106.7 15L112 0L450 0L450 15C450 30 450 60 450 90C450 120 450 150 450 180C450 210 450 240 450 270C450 300 450 330 450 360C450 390 450 420 450 450C450 480 450 510 450 540C450 570 450 600 450 630C450 660 450 690 450 720C450 750 450 780 450 810C450 840 450 870 450 885L450 900Z" fill="#fa7268"></path><path d="M145 900L155.5 885C166 870 187 840 188.2 810C189.3 780 170.7 750 171.7 720C172.7 690 193.3 660 191.8 630C190.3 600 166.7 570 163.2 540C159.7 510 176.3 480 177.3 450C178.3 420 163.7 390 161.5 360C159.3 330 169.7 300 168.5 270C167.3 240 154.7 210 159 180C163.3 150 184.7 120 196.3 90C208 60 210 30 211 15L212 0L450 0L450 15C450 30 450 60 450 90C450 120 450 150 450 180C450 210 450 240 450 270C450 300 450 330 450 360C450 390 450 420 450 450C450 480 450 510 450 540C450 570 450 600 450 630C450 660 450 690 450 720C450 750 450 780 450 810C450 840 450 870 450 885L450 900Z" fill="#ef5f67"></path><path d="M211 900L214.7 885C218.3 870 225.7 840 227 810C228.3 780 223.7 750 222.8 720C222 690 225 660 233.3 630C241.7 600 255.3 570 259 540C262.7 510 256.3 480 255.2 450C254 420 258 390 257.8 360C257.7 330 253.3 300 256 270C258.7 240 268.3 210 262.5 180C256.7 150 235.3 120 226 90C216.7 60 219.3 30 220.7 15L222 0L450 0L450 15C450 30 450 60 450 90C450 120 450 150 450 180C450 210 450 240 450 270C450 300 450 330 450 360C450 390 450 420 450 450C450 480 450 510 450 540C450 570 450 600 450 630C450 660 450 690 450 720C450 750 450 780 450 810C450 840 450 870 450 885L450 900Z" fill="#e34c67"></path><path d="M318 900L316.3 885C314.7 870 311.3 840 309.5 810C307.7 780 307.3 750 312.8 720C318.3 690 329.7 660 335.8 630C342 600 343 570 340.3 540C337.7 510 331.3 480 320.5 450C309.7 420 294.3 390 287 360C279.7 330 280.3 300 285.3 270C290.3 240 299.7 210 299.8 180C300 150 291 120 294.5 90C298 60 314 30 322 15L330 0L450 0L450 15C450 30 450 60 450 90C450 120 450 150 450 180C450 210 450 240 450 270C450 300 450 330 450 360C450 390 450 420 450 450C450 480 450 510 450 540C450 570 450 600 450 630C450 660 450 690 450 720C450 750 450 780 450 810C450 840 450 870 450 885L450 900Z" fill="#d53867"></path><path d="M379 900L378.2 885C377.3 870 375.7 840 376.5 810C377.3 780 380.7 750 377.5 720C374.3 690 364.7 660 358.8 630C353 600 351 570 352 540C353 510 357 480 357.8 450C358.7 420 356.3 390 354.8 360C353.3 330 352.7 300 356.3 270C360 240 368 210 373.3 180C378.7 150 381.3 120 384 90C386.7 60 389.3 30 390.7 15L392 0L450 0L450 15C450 30 450 60 450 90C450 120 450 150 450 180C450 210 450 240 450 270C450 300 450 330 450 360C450 390 450 420 450 450C450 480 450 510 450 540C450 570 450 600 450 630C450 660 450 690 450 720C450 750 450 780 450 810C450 840 450 870 450 885L450 900Z" fill="#c62368"></path></svg>