<svg id="Capa_1" data-name="Capa 1" xmlns="http://www.w3.org/2000/svg" viewBox="0 0 431 520"><defs><style>.cls-1{fill:#eee;}</style></defs><path class="cls-1" d="M314.86,164.12V292.46H247.55V180.39a31.84,31.84,0,0,0-2.22-12.57,16.59,16.59,0,0,0-5.92-8.51,22.11,22.11,0,0,0-9.61-4.81,50.87,50.87,0,0,0-13-1.48,30.79,30.79,0,0,0-12.2,2.22q-4.82,1.86-5.92,3.7V292.46H131.42v-172q6.29-3.33,18.49-7a271,271,0,0,1,27.37-7.4q15.53-3.33,31.07-5.55a200.26,200.26,0,0,1,28.11-2.22q24.41,0,41.79,5.92,17.75,5.55,27,20Q314.87,138.23,314.86,164.12ZM249,135.27q11.1-10.35,28.85-18.49A199.45,199.45,0,0,1,316,103.46q20-5.17,36.62-5.18,24.41,0,41.79,5.92,17.76,5.55,27,20,9.63,14.05,9.62,40V292.46H363.69V180.39a31.84,31.84,0,0,0-2.22-12.57,16.71,16.71,0,0,0-5.92-8.51,22.15,22.15,0,0,0-9.62-4.81A50.79,50.79,0,0,0,333,153a30.81,30.81,0,0,0-12.21,2.22c-3.2,1.24-5.18,2.47-5.92,3.7Z"/><path class="cls-1" d="M106.15,421.72q-25.52,0-45.49-5.18-19.6-5.18-33.29-16.65Q14,388.06,7,368.83q-7-19.6-7-48.09,0-46.59,22.93-73.23,22.93-27,68.79-27,4.82,0,13.69.74a59.87,59.87,0,0,1,19.23,4.44q10.37,3.7,18.86,14.43l-11.83,20.71V151.35h66.57v209a47.37,47.37,0,0,1-7.39,26.26,61.13,61.13,0,0,1-20.35,19.23,100.61,100.61,0,0,1-29.21,11.84A147.69,147.69,0,0,1,106.15,421.72Zm3-55.48q10.73,0,16.64-3a11.07,11.07,0,0,0,5.92-10.36v-73.6a50.14,50.14,0,0,0-10-4.07,37.74,37.74,0,0,0-10.35-1.48q-13.69,0-23.67,3.7T72.49,291.9q-5.17,10.73-5.18,31.43,0,14.81,4.44,24.41A30.23,30.23,0,0,0,85.44,361.8Q94.68,366.24,109.11,366.24Z"/></svg>